<svg width="87" height="32" fill="none" xmlns="http://www.w3.org/2000/svg"><path d="M35.597 17.7l3.13-5.605h-3.139l-1.849 3.415-1.807-3.415h-1.597c.268 1.161.41 2.35.42 3.545l1.146 2.06-2.198 3.934.676 1.9h1.413l1.961-3.593 1.96 3.594h3.149l-3.265-5.836zM21.602 17.794H25.3L23.44 12.03l-1.838 5.764z" fill="#1A64E2"/><path d="M27.147 23.535l-1.027-3.172h-5.34l-1.016 3.172h-3.246l5.51-15.395h2.824l4.845 13.476a16.321 16.321 0 0 0 1.064-5.81v-.166l-1.977-3.545h1.551c-.83-3.58-2.834-6.744-5.666-8.949C21.836.942 18.354-.164 14.822.02 11.29.203 7.931 1.665 5.323 4.153 2.716 6.64 1.025 9.997.542 13.645A16.337 16.337 0 0 0 2.676 24.13c1.863 3.13 4.717 5.483 8.07 6.656a14.617 14.617 0 0 0 10.292-.235c3.3-1.323 6.052-3.805 7.781-7.016h-1.672zm-11.132 0h-3.27l-2.771-5.631H7.54v5.63H4.499V8.14h5.494c1.747 0 3.094.406 4.043 1.217.948.81 1.422 1.958 1.42 3.442 0 1.05-.217 1.926-.654 2.627-.436.7-1.098 1.26-1.985 1.675l3.198 6.292v.142z" fill="#1A64E2"/><path d="M30.756 15.64a16.423 16.423 0 0 0-.42-3.545h-1.552l1.972 3.545zM9.992 10.71H7.545v4.622h2.458c.766 0 1.358-.202 1.777-.608.42-.405.63-.963.63-1.675 0-.726-.198-1.297-.593-1.713-.396-.416-1.004-.625-1.825-.627zM44.267 8.652v2.89h1.906v2.305h-1.906v5.869c0 .435.08.746.237.935.158.188.46.282.907.282.33 0 .621-.025.875-.076v2.38a5.835 5.835 0 0 1-1.803.283c-2.087 0-3.152-1.112-3.193-3.337v-6.336h-1.628v-2.304h1.628V8.652h2.977zM52.962 23.52c-1.635 0-2.967-.529-3.997-1.587-1.023-1.058-1.535-2.467-1.535-4.228v-.304c0-1.181.216-2.235.649-3.163.433-.935 1.044-1.652 1.834-2.152.796-.507 1.703-.76 2.72-.76 1.524 0 2.723.506 3.595 1.52.879 1.015 1.319 2.454 1.319 4.316v1.282h-7.099c.097.768.385 1.384.866 1.848.487.464 1.102.696 1.844.696 1.147 0 2.043-.439 2.689-1.316l1.463 1.729a4.57 4.57 0 0 1-1.814 1.565c-.762.37-1.607.554-2.534.554zm-.34-9.651c-.59 0-1.071.21-1.442.63-.364.42-.598 1.022-.7 1.804h4.14v-.25c-.013-.695-.191-1.232-.535-1.608-.343-.384-.831-.576-1.463-.576zM65.51 14.488a7.668 7.668 0 0 0-1.071-.087c-1.127 0-1.865.402-2.215 1.207v7.695h-2.978v-11.76h2.813l.082 1.402c.598-1.08 1.425-1.62 2.483-1.62.33 0 .639.047.927.142l-.04 3.021zM65.314 21.76c0-.5.158-.907.474-1.218.323-.312.725-.467 1.206-.467.487 0 .889.155 1.205.467.323.311.484.717.484 1.217 0 .493-.158.895-.474 1.207-.316.304-.72.456-1.215.456-.488 0-.89-.152-1.206-.456-.316-.312-.474-.714-.474-1.207zM74.442 23.303h-2.988v-11.76h2.988v11.76zM71.28 8.499c0-.47.148-.858.443-1.163.303-.304.711-.456 1.226-.456.509 0 .914.152 1.216.456.302.305.453.692.453 1.163 0 .479-.154.87-.463 1.174-.303.305-.704.457-1.206.457-.501 0-.906-.152-1.215-.457-.303-.304-.454-.695-.454-1.174zM76.44 17.314c0-1.167.214-2.206.64-3.12.425-.912 1.037-1.619 1.833-2.119.804-.5 1.734-.75 2.792-.75 1.504 0 2.73.486 3.678 1.457.955.97 1.487 2.29 1.597 3.956l.02.804c0 1.804-.477 3.254-1.432 4.348-.954 1.087-2.235 1.63-3.842 1.63-1.608 0-2.892-.543-3.853-1.63-.955-1.087-1.432-2.565-1.432-4.435v-.141zm2.978.228c0 1.116.2 1.971.597 2.565.399.587.969.88 1.71.88.722 0 1.285-.29 1.69-.869.405-.587.608-1.521.608-2.804 0-1.094-.203-1.942-.608-2.543-.405-.602-.975-.902-1.71-.902-.728 0-1.291.3-1.69.902-.398.594-.597 1.518-.597 2.771z" fill="#1A64E2"/></svg>